w50b400r100.ufo
<glyph name="_14" format="2">
  <advance width="50"/>
  <unicode hex="010E"/>
  <unicode hex="2582"/><unicode hex="0068"/>
  <outline>
    <component base="cap" xOffset="0" yOffset="0" />
    <component base="cap" xOffset="0" yOffset="-260" />
    <contour>
      <point x="0" y="200" type="line"/>
      <point x="0" y="-60" type="line"/>
      <point x="400" y="-60" type="line"/>
      <point x="400" y="200" type="line"/>
    </contour>
  </outline>
</glyph>
<glyph name="_15" format="2">
  <advance width="50"/>
  <unicode hex="010F"/>
  
  <outline>
    <component base="cap" xOffset="0" yOffset="0" />
    <component base="cap" xOffset="0" yOffset="-250" />
    <contour>
      <point x="0" y="200" type="line"/>
      <point x="0" y="-50" type="line"/>
      <point x="400" y="-50" type="line"/>
      <point x="400" y="200" type="line"/>
    </contour>
  </outline>
</glyph>
<glyph name="_18" format="2">
  <advance width="50"/>
  <unicode hex="0112"/>
  <unicode hex="006A"/>
  <outline>
    <component base="cap" xOffset="0" yOffset="0" />
    <component base="cap" xOffset="0" yOffset="-220" />
    <contour>
      <point x="0" y="200" type="line"/>
      <point x="0" y="-20" type="line"/>
      <point x="400" y="-20" type="line"/>
      <point x="400" y="200" type="line"/>
    </contour>
  </outline>
</glyph>
<glyph name="_22" format="2">
  <advance width="50"/>
  <unicode hex="0116"/>
  <unicode hex="006C"/>
  <outline>
    <component base="cap" xOffset="0" yOffset="0" />
    <component base="cap" xOffset="0" yOffset="-180" />
    <contour>
      <point x="0" y="200" type="line"/>
      <point x="0" y="20" type="line"/>
      <point x="400" y="20" type="line"/>
      <point x="400" y="200" type="line"/>
    </contour>
  </outline>
</glyph>
<glyph name="_26" format="2">
  <advance width="50"/>
  <unicode hex="011A"/>
  <unicode hex="006E"/>
  <outline>
    <component base="cap" xOffset="0" yOffset="0" />
    <component base="cap" xOffset="0" yOffset="-140" />
    <contour>
      <point x="0" y="200" type="line"/>
      <point x="0" y="60" type="line"/>
      <point x="400" y="60" type="line"/>
      <point x="400" y="200" type="line"/>
    </contour>
  </outline>
</glyph>
<glyph name="_28" format="2">
  <advance width="50"/>
  <unicode hex="011C"/>
  <unicode hex="2583"/><unicode hex="006F"/>
  <outline>
    <component base="cap" xOffset="0" yOffset="0" />
    <component base="cap" xOffset="0" yOffset="-120" />
    <contour>
      <point x="0" y="200" type="line"/>
      <point x="0" y="80" type="line"/>
      <point x="400" y="80" type="line"/>
      <point x="400" y="200" type="line"/>
    </contour>
  </outline>
</glyph>
<glyph name="_46" format="2">
  <advance width="50"/>
  <unicode hex="012E"/>
  <unicode hex="0078"/>
  <outline>
    <component base="cap" xOffset="0" yOffset="0" />
    <component base="cap" xOffset="0" yOffset="60" />
    <contour>
      <point x="0" y="200" type="line"/>
      <point x="0" y="260" type="line"/>
      <point x="400" y="260" type="line"/>
      <point x="400" y="200" type="line"/>
    </contour>
  </outline>
</glyph>
<glyph name="_51" format="2">
  <advance width="50"/>
  <unicode hex="0133"/>
  
  <outline>
    <component base="cap" xOffset="0" yOffset="0" />
    <component base="cap" xOffset="0" yOffset="110" />
    <contour>
      <point x="0" y="200" type="line"/>
      <point x="0" y="310" type="line"/>
      <point x="400" y="310" type="line"/>
      <point x="400" y="200" type="line"/>
    </contour>
  </outline>
</glyph>
<glyph name="_58" format="2">
  <advance width="50"/>
  <unicode hex="013A"/>
  <unicode hex="0044"/>
  <outline>
    <component base="cap" xOffset="0" yOffset="0" />
    <component base="cap" xOffset="0" yOffset="180" />
    <contour>
      <point x="0" y="200" type="line"/>
      <point x="0" y="380" type="line"/>
      <point x="400" y="380" type="line"/>
      <point x="400" y="200" type="line"/>
    </contour>
  </outline>
</glyph>
<glyph name="_59" format="2">
  <advance width="50"/>
  <unicode hex="013B"/>
  
  <outline>
    <component base="cap" xOffset="0" yOffset="0" />
    <component base="cap" xOffset="0" yOffset="190" />
    <contour>
      <point x="0" y="200" type="line"/>
      <point x="0" y="390" type="line"/>
      <point x="400" y="390" type="line"/>
      <point x="400" y="200" type="line"/>
    </contour>
  </outline>
</glyph>
<glyph name="_92" format="2">
  <advance width="50"/>
  <unicode hex="015C"/>
  <unicode hex="0055"/>
  <outline>
    <component base="cap" xOffset="0" yOffset="0" />
    <component base="cap" xOffset="0" yOffset="520" />
    <contour>
      <point x="0" y="200" type="line"/>
      <point x="0" y="720" type="line"/>
      <point x="400" y="720" type="line"/>
      <point x="400" y="200" type="line"/>
    </contour>
  </outline>
</glyph>
<glyph name="_93" format="2">
  <advance width="50"/>
  <unicode hex="015D"/>
  
  <outline>
    <component base="cap" xOffset="0" yOffset="0" />
    <component base="cap" xOffset="0" yOffset="530" />
    <contour>
      <point x="0" y="200" type="line"/>
      <point x="0" y="730" type="line"/>
      <point x="400" y="730" type="line"/>
      <point x="400" y="200" type="line"/>
    </contour>
  </outline>
</glyph>
<glyph name="_95" format="2">
  <advance width="50"/>
  <unicode hex="015F"/>
  
  <outline>
    <component base="cap" xOffset="0" yOffset="0" />
    <component base="cap" xOffset="0" yOffset="550" />
    <contour>
      <point x="0" y="200" type="line"/>
      <point x="0" y="750" type="line"/>
      <point x="400" y="750" type="line"/>
      <point x="400" y="200" type="line"/>
    </contour>
  </outline>
</glyph>
<glyph name="_98" format="2">
  <advance width="50"/>
  <unicode hex="0162"/>
  <unicode hex="0058"/>
  <outline>
    <component base="cap" xOffset="0" yOffset="0" />
    <component base="cap" xOffset="0" yOffset="580" />
    <contour>
      <point x="0" y="200" type="line"/>
      <point x="0" y="780" type="line"/>
      <point x="400" y="780" type="line"/>
      <point x="400" y="200" type="line"/>
    </contour>
  </outline>
</glyph>
<glyph name="_102" format="2">
  <advance width="50"/>
  <unicode hex="0166"/>
  
  <outline>
    <component base="cap" xOffset="0" yOffset="0" />
    <component base="cap" xOffset="0" yOffset="620" />
    <contour>
      <point x="0" y="200" type="line"/>
      <point x="0" y="820" type="line"/>
      <point x="400" y="820" type="line"/>
      <point x="400" y="200" type="line"/>
    </contour>
  </outline>
</glyph>
<glyph name="_103" format="2">
  <advance width="50"/>
  <unicode hex="0167"/>
  
  <outline>
    <component base="cap" xOffset="0" yOffset="0" />
    <component base="cap" xOffset="0" yOffset="630" />
    <contour>
      <point x="0" y="200" type="line"/>
      <point x="0" y="830" type="line"/>
      <point x="400" y="830" type="line"/>
      <point x="400" y="200" type="line"/>
    </contour>
  </outline>
</glyph>
<glyph name="_2.center" format="2">
  <advance width="50"/>
  <unicode hex="0402"/>
  
  <outline>
    <component base="cap" xOffset="0" yOffset="490" />
    <component base="cap" xOffset="0" yOffset="110" />
    <contour>
      <point x="0" y="690" type="line"/>
      <point x="0" y="310" type="line"/>
      <point x="400" y="310" type="line"/>
      <point x="400" y="690" type="line"/>
    </contour>
  </outline>
</glyph>
<glyph name="_7.center" format="2">
  <advance width="50"/>
  <unicode hex="0407"/>
  
  <outline>
    <component base="cap" xOffset="0" yOffset="465" />
    <component base="cap" xOffset="0" yOffset="135" />
    <contour>
      <point x="0" y="665" type="line"/>
      <point x="0" y="335" type="line"/>
      <point x="400" y="335" type="line"/>
      <point x="400" y="665" type="line"/>
    </contour>
  </outline>
</glyph>
<glyph name="_13.center" format="2">
  <advance width="50"/>
  <unicode hex="040D"/>
  
  <outline>
    <component base="cap" xOffset="0" yOffset="435" />
    <component base="cap" xOffset="0" yOffset="165" />
    <contour>
      <point x="0" y="635" type="line"/>
      <point x="0" y="365" type="line"/>
      <point x="400" y="365" type="line"/>
      <point x="400" y="635" type="line"/>
    </contour>
  </outline>
</glyph>
<glyph name="_18.center" format="2">
  <advance width="50"/>
  <unicode hex="0412"/>
  
  <outline>
    <component base="cap" xOffset="0" yOffset="410" />
    <component base="cap" xOffset="0" yOffset="190" />
    <contour>
      <point x="0" y="610" type="line"/>
      <point x="0" y="390" type="line"/>
      <point x="400" y="390" type="line"/>
      <point x="400" y="610" type="line"/>
    </contour>
  </outline>
</glyph>
<glyph name="_23.center" format="2">
  <advance width="50"/>
  <unicode hex="0417"/>
  
  <outline>
    <component base="cap" xOffset="0" yOffset="385" />
    <component base="cap" xOffset="0" yOffset="215" />
    <contour>
      <point x="0" y="585" type="line"/>
      <point x="0" y="415" type="line"/>
      <point x="400" y="415" type="line"/>
      <point x="400" y="585" type="line"/>
    </contour>
  </outline>
</glyph>
<glyph name="_49.center" format="2">
  <advance width="50"/>
  <unicode hex="0431"/>
  
  <outline>
    <component base="cap" xOffset="0" yOffset="255" />
    <component base="cap" xOffset="0" yOffset="345" />
    <contour>
      <point x="0" y="455" type="line"/>
      <point x="0" y="545" type="line"/>
      <point x="400" y="545" type="line"/>
      <point x="400" y="455" type="line"/>
    </contour>
  </outline>
</glyph>
<glyph name="_50.center" format="2">
  <advance width="50"/>
  <unicode hex="0432"/>
  
  <outline>
    <component base="cap" xOffset="0" yOffset="250" />
    <component base="cap" xOffset="0" yOffset="350" />
    <contour>
      <point x="0" y="450" type="line"/>
      <point x="0" y="550" type="line"/>
      <point x="400" y="550" type="line"/>
      <point x="400" y="450" type="line"/>
    </contour>
  </outline>
</glyph>
<glyph name="_52.center" format="2">
  <advance width="50"/>
  <unicode hex="0434"/>
  
  <outline>
    <component base="cap" xOffset="0" yOffset="240" />
    <component base="cap" xOffset="0" yOffset="360" />
    <contour>
      <point x="0" y="440" type="line"/>
      <point x="0" y="560" type="line"/>
      <point x="400" y="560" type="line"/>
      <point x="400" y="440" type="line"/>
    </contour>
  </outline>
</glyph>
<glyph name="_56.center" format="2">
  <advance width="50"/>
  <unicode hex="0438"/>
  
  <outline>
    <component base="cap" xOffset="0" yOffset="220" />
    <component base="cap" xOffset="0" yOffset="380" />
    <contour>
      <point x="0" y="420" type="line"/>
      <point x="0" y="580" type="line"/>
      <point x="400" y="580" type="line"/>
      <point x="400" y="420" type="line"/>
    </contour>
  </outline>
</glyph>
<glyph name="_63.center" format="2">
  <advance width="50"/>
  <unicode hex="043F"/>
  
  <outline>
    <component base="cap" xOffset="0" yOffset="185" />
    <component base="cap" xOffset="0" yOffset="415" />
    <contour>
      <point x="0" y="385" type="line"/>
      <point x="0" y="615" type="line"/>
      <point x="400" y="615" type="line"/>
      <point x="400" y="385" type="line"/>
    </contour>
  </outline>
</glyph>
<glyph name="_77.center" format="2">
  <advance width="50"/>
  <unicode hex="044D"/>
  
  <outline>
    <component base="cap" xOffset="0" yOffset="115" />
    <component base="cap" xOffset="0" yOffset="485" />
    <contour>
      <point x="0" y="315" type="line"/>
      <point x="0" y="685" type="line"/>
      <point x="400" y="685" type="line"/>
      <point x="400" y="315" type="line"/>
    </contour>
  </outline>
</glyph>
<glyph name="_103.center" format="2">
  <advance width="50"/>
  <unicode hex="0467"/>
  
  <outline>
    <component base="cap" xOffset="0" yOffset="-15" />
    <component base="cap" xOffset="0" yOffset="615" />
    <contour>
      <point x="0" y="185" type="line"/>
      <point x="0" y="815" type="line"/>
      <point x="400" y="815" type="line"/>
      <point x="400" y="185" type="line"/>
    </contour>
  </outline>
</glyph>
<glyph name="_105.center" format="2">
  <advance width="50"/>
  <unicode hex="0469"/>
  
  <outline>
    <component base="cap" xOffset="0" yOffset="-25" />
    <component base="cap" xOffset="0" yOffset="625" />
    <contour>
      <point x="0" y="175" type="line"/>
      <point x="0" y="825" type="line"/>
      <point x="400" y="825" type="line"/>
      <point x="400" y="175" type="line"/>
    </contour>
  </outline>
</glyph>
<glyph name="_11.clip.center" format="2">
  <advance width="50"/>
  
  <outline>
    <contour>
        <point x="0.000" y="530.250"/>

        <point x="24.750" y="555.000"/>
        <point x="55.000" y="555.000" type="curve" smooth="yes"/>
        <point x="345.000" y="555.000" type="line"/>
        <point x="375.250" y="555.000"/>

        <point x="400.000" y="530.250"/>
        <point x="400.000" y="500.000" type="curve" smooth="yes"/>
        <point x="400.000" y="500.000" type="line"/>
        <point x="400.000" y="469.750"/>

        <point x="375.250" y="445.000"/>
        <point x="345.000" y="445.000" type="curve" smooth="yes"/>
        <point x="55.000" y="445.000" type="line"/>
        <point x="24.750" y="445.000"/>

        <point x="0.000" y="469.750"/>
        <point x="0.000" y="500.000" type="curve" smooth="yes"/>
        <point x="0.000" y="500.000" type="line"/>
    </contour>
  </outline>
</glyph>
<glyph name="_11.clip" format="2">
  <advance width="50"/>
  
  <outline>
    <contour>
        <point x="0.000" y="85.250"/>

        <point x="24.750" y="110.000"/>
        <point x="55.000" y="110.000" type="curve" smooth="yes"/>
        <point x="345.000" y="110.000" type="line"/>
        <point x="375.250" y="110.000"/>

        <point x="400.000" y="85.250"/>
        <point x="400.000" y="55.000" type="curve" smooth="yes"/>
        <point x="400.000" y="55.000" type="line"/>
        <point x="400.000" y="24.750"/>

        <point x="375.250" y="0.000"/>
        <point x="345.000" y="0.000" type="curve" smooth="yes"/>
        <point x="55.000" y="0.000" type="line"/>
        <point x="24.750" y="0.000"/>

        <point x="0.000" y="24.750"/>
        <point x="0.000" y="55.000" type="curve" smooth="yes"/>
        <point x="0.000" y="55.000" type="line"/>
    </contour>
  </outline>
</glyph>
<glyph name="_12.clip.center" format="2">
  <advance width="50"/>
  
  <outline>
    <contour>
        <point x="0.000" y="533.000"/>

        <point x="27.000" y="560.000"/>
        <point x="60.000" y="560.000" type="curve" smooth="yes"/>
        <point x="340.000" y="560.000" type="line"/>
        <point x="373.000" y="560.000"/>

        <point x="400.000" y="533.000"/>
        <point x="400.000" y="500.000" type="curve" smooth="yes"/>
        <point x="400.000" y="500.000" type="line"/>
        <point x="400.000" y="467.000"/>

        <point x="373.000" y="440.000"/>
        <point x="340.000" y="440.000" type="curve" smooth="yes"/>
        <point x="60.000" y="440.000" type="line"/>
        <point x="27.000" y="440.000"/>

        <point x="0.000" y="467.000"/>
        <point x="0.000" y="500.000" type="curve" smooth="yes"/>
        <point x="0.000" y="500.000" type="line"/>
    </contour>
  </outline>
</glyph>
<glyph name="_9.clip" format="2">
  <advance width="50"/>
  
  <outline>
    <contour>
        <point x="0.000" y="69.750"/>

        <point x="20.250" y="90.000"/>
        <point x="45.000" y="90.000" type="curve" smooth="yes"/>
        <point x="355.000" y="90.000" type="line"/>
        <point x="379.750" y="90.000"/>

        <point x="400.000" y="69.750"/>
        <point x="400.000" y="45.000" type="curve" smooth="yes"/>
        <point x="400.000" y="45.000" type="line"/>
        <point x="400.000" y="20.250"/>

        <point x="379.750" y="0.000"/>
        <point x="355.000" y="0.000" type="curve" smooth="yes"/>
        <point x="45.000" y="0.000" type="line"/>
        <point x="20.250" y="0.000"/>

        <point x="0.000" y="20.250"/>
        <point x="0.000" y="45.000" type="curve" smooth="yes"/>
        <point x="0.000" y="45.000" type="line"/>
    </contour>
  </outline>
</glyph>
